<?xml version="1.0" encoding="UTF-8" standalone="no"?>
<!DOCTYPE svg PUBLIC "-//W3C//DTD SVG 1.1//EN"
 "http://www.w3.org/Graphics/SVG/1.1/DTD/svg11.dtd">
<!-- Generated by graphviz version 2.47.0 (20210316.0004)
 -->
<!-- Title: dependencies Pages: 1 -->
<svg width="504pt" height="211pt"
 viewBox="0.00 0.00 504.00 211.00" xmlns="http://www.w3.org/2000/svg" xmlns:xlink="http://www.w3.org/1999/xlink">
<g id="graph0" class="graph" transform="scale(1 1) rotate(0) translate(4 207)">
<title>dependencies</title>
<polygon fill="white" stroke="transparent" points="-4,4 -4,-207 500,-207 500,4 -4,4"/>
<text text-anchor="start" x="227.01" y="-42.4" font-family="Times-12" font-weight="bold" font-size="14.00">Legend</text>
<polygon fill="#ffffb3" stroke="transparent" points="14,-10 14,-30 34,-30 34,-10 14,-10"/>
<text text-anchor="start" x="37.63" y="-15.4" font-family="Times-12" font-size="14.00"> &#160;Declarations</text>
<polygon fill="#8dd3c7" stroke="transparent" points="127,-10 127,-30 147,-30 147,-10 127,-10"/>
<text text-anchor="start" x="150.73" y="-15.4" font-family="Times-12" font-size="14.00"> &#160;Module</text>
<polygon fill="#80b1d3" stroke="transparent" points="213,-10 213,-30 233,-30 233,-10 213,-10"/>
<text text-anchor="start" x="236.78" y="-15.4" font-family="Times-12" font-size="14.00"> &#160;Bootstrap</text>
<polygon fill="#fdb462" stroke="transparent" points="310,-10 310,-30 330,-30 330,-10 310,-10"/>
<text text-anchor="start" x="333.67" y="-15.4" font-family="Times-12" font-size="14.00"> &#160;Providers</text>
<polygon fill="#fb8072" stroke="transparent" points="406,-10 406,-30 426,-30 426,-10 406,-10"/>
<text text-anchor="start" x="429.73" y="-15.4" font-family="Times-12" font-size="14.00"> &#160;Exports</text>
<g id="clust1" class="cluster">
<title>cluster_AppModule</title>
<polygon fill="none" stroke="black" stroke-dasharray="1,5" points="11,-70 11,-195 485,-195 485,-70 11,-70"/>
</g>
<g id="clust3" class="cluster">
<title>cluster_AppModule_imports</title>
<polygon fill="none" stroke="black" points="157,-78 157,-130 477,-130 477,-78 157,-78"/>
</g>
<g id="clust6" class="cluster">
<title>cluster_AppModule_providers</title>
<polygon fill="none" stroke="black" points="19,-78 19,-130 149,-130 149,-78 19,-78"/>
</g>
<!-- AuthModule -->
<g id="node1" class="node">
<title>AuthModule</title>
<polygon fill="#8dd3c7" stroke="black" points="468.55,-122 465.55,-126 444.55,-126 441.55,-122 381.45,-122 381.45,-86 468.55,-86 468.55,-122"/>
<text text-anchor="middle" x="425" y="-99.8" font-family="Times,serif" font-size="14.00">AuthModule</text>
</g>
<!-- AppModule -->
<g id="node4" class="node">
<title>AppModule</title>
<polygon fill="#8dd3c7" stroke="black" points="360.66,-187 357.66,-191 336.66,-191 333.66,-187 277.34,-187 277.34,-151 360.66,-151 360.66,-187"/>
<text text-anchor="middle" x="319" y="-164.8" font-family="Times,serif" font-size="14.00">AppModule</text>
</g>
<!-- AuthModule&#45;&gt;AppModule -->
<g id="edge1" class="edge">
<title>AuthModule&#45;&gt;AppModule</title>
<path fill="none" stroke="black" d="M439.59,-122.28C439.59,-143.32 439.59,-175 439.59,-175 439.59,-175 370.84,-175 370.84,-175"/>
<polygon fill="black" stroke="black" points="370.84,-171.5 360.84,-175 370.84,-178.5 370.84,-171.5"/>
</g>
<!-- AuthModule&#45;&gt;AppModule -->
<g id="edge2" class="edge">
<title>AuthModule&#45;&gt;AppModule</title>
<path fill="none" stroke="black" d="M410.41,-122.02C410.41,-139.37 410.41,-163 410.41,-163 410.41,-163 370.69,-163 370.69,-163"/>
<polygon fill="black" stroke="black" points="370.69,-159.5 360.69,-163 370.69,-166.5 370.69,-159.5"/>
</g>
<!-- PostsModule -->
<g id="node2" class="node">
<title>PostsModule</title>
<polygon fill="#8dd3c7" stroke="black" points="363.61,-122 360.61,-126 339.61,-126 336.61,-122 274.39,-122 274.39,-86 363.61,-86 363.61,-122"/>
<text text-anchor="middle" x="319" y="-99.8" font-family="Times,serif" font-size="14.00">PostsModule</text>
</g>
<!-- PostsModule&#45;&gt;AppModule -->
<g id="edge3" class="edge">
<title>PostsModule&#45;&gt;AppModule</title>
<path fill="none" stroke="black" d="M319,-122.11C319,-122.11 319,-140.99 319,-140.99"/>
<polygon fill="black" stroke="black" points="315.5,-140.99 319,-150.99 322.5,-140.99 315.5,-140.99"/>
</g>
<!-- UsersModule -->
<g id="node3" class="node">
<title>UsersModule</title>
<polygon fill="#8dd3c7" stroke="black" points="256.92,-122 253.92,-126 232.92,-126 229.92,-122 165.08,-122 165.08,-86 256.92,-86 256.92,-122"/>
<text text-anchor="middle" x="211" y="-99.8" font-family="Times,serif" font-size="14.00">UsersModule</text>
</g>
<!-- UsersModule&#45;&gt;AppModule -->
<g id="edge4" class="edge">
<title>UsersModule&#45;&gt;AppModule</title>
<path fill="none" stroke="black" d="M211,-122.02C211,-139.37 211,-163 211,-163 211,-163 267.24,-163 267.24,-163"/>
<polygon fill="black" stroke="black" points="267.24,-166.5 277.24,-163 267.24,-159.5 267.24,-166.5"/>
</g>
<!-- AppService -->
<g id="node5" class="node">
<title>AppService</title>
<ellipse fill="#fdb462" stroke="black" cx="84" cy="-104" rx="56.74" ry="18"/>
<text text-anchor="middle" x="84" y="-99.8" font-family="Times,serif" font-size="14.00">AppService</text>
</g>
<!-- AppService&#45;&gt;AppModule -->
<g id="edge5" class="edge">
<title>AppService&#45;&gt;AppModule</title>
<path fill="none" stroke="black" d="M84,-122.28C84,-143.32 84,-175 84,-175 84,-175 267.26,-175 267.26,-175"/>
<polygon fill="black" stroke="black" points="267.26,-178.5 277.26,-175 267.26,-171.5 267.26,-178.5"/>
</g>
</g>
</svg>
