<?xml version="1.0" encoding="UTF-8" standalone="no"?>
<!DOCTYPE svg PUBLIC "-//W3C//DTD SVG 1.1//EN"
 "http://www.w3.org/Graphics/SVG/1.1/DTD/svg11.dtd">
<!-- Generated by graphviz version 2.47.0 (20210316.0004)
 -->
<!-- Title: dependencies Pages: 1 -->
<svg width="878pt" height="366pt"
 viewBox="0.00 0.00 878.00 366.00" xmlns="http://www.w3.org/2000/svg" xmlns:xlink="http://www.w3.org/1999/xlink">
<g id="graph0" class="graph" transform="scale(1 1) rotate(0) translate(4 362)">
<title>dependencies</title>
<polygon fill="white" stroke="transparent" points="-4,4 -4,-362 874,-362 874,4 -4,4"/>
<text text-anchor="start" x="414.01" y="-42.4" font-family="Times-12" font-weight="bold" font-size="14.00">Legend</text>
<polygon fill="#ffffb3" stroke="transparent" points="201,-10 201,-30 221,-30 221,-10 201,-10"/>
<text text-anchor="start" x="224.63" y="-15.4" font-family="Times-12" font-size="14.00"> &#160;Declarations</text>
<polygon fill="#8dd3c7" stroke="transparent" points="314,-10 314,-30 334,-30 334,-10 314,-10"/>
<text text-anchor="start" x="337.73" y="-15.4" font-family="Times-12" font-size="14.00"> &#160;Module</text>
<polygon fill="#80b1d3" stroke="transparent" points="400,-10 400,-30 420,-30 420,-10 400,-10"/>
<text text-anchor="start" x="423.78" y="-15.4" font-family="Times-12" font-size="14.00"> &#160;Bootstrap</text>
<polygon fill="#fdb462" stroke="transparent" points="497,-10 497,-30 517,-30 517,-10 497,-10"/>
<text text-anchor="start" x="520.67" y="-15.4" font-family="Times-12" font-size="14.00"> &#160;Providers</text>
<polygon fill="#fb8072" stroke="transparent" points="593,-10 593,-30 613,-30 613,-10 593,-10"/>
<text text-anchor="start" x="616.73" y="-15.4" font-family="Times-12" font-size="14.00"> &#160;Exports</text>
<g id="clust19" class="cluster">
<title>cluster_UsersModule</title>
<polygon fill="none" stroke="black" stroke-dasharray="1,5" points="168,-70 168,-274 324,-274 324,-70 168,-70"/>
</g>
<g id="clust24" class="cluster">
<title>cluster_UsersModule_providers</title>
<polygon fill="none" stroke="black" points="176,-78 176,-130 316,-130 316,-78 176,-78"/>
</g>
<g id="clust22" class="cluster">
<title>cluster_UsersModule_exports</title>
<polygon fill="none" stroke="black" points="206,-214 206,-266 316,-266 316,-214 206,-214"/>
</g>
<g id="clust13" class="cluster">
<title>cluster_PostsModule</title>
<polygon fill="none" stroke="black" stroke-dasharray="1,5" points="8,-138 8,-266 160,-266 160,-138 8,-138"/>
</g>
<g id="clust18" class="cluster">
<title>cluster_PostsModule_providers</title>
<polygon fill="none" stroke="black" points="16,-146 16,-198 152,-198 152,-146 16,-146"/>
</g>
<g id="clust1" class="cluster">
<title>cluster_AppModule</title>
<polygon fill="none" stroke="black" stroke-dasharray="1,5" points="332,-206 332,-342 590,-342 590,-206 332,-206"/>
</g>
<g id="clust3" class="cluster">
<title>cluster_AppModule_imports</title>
<polygon fill="none" stroke="black" points="478,-214 478,-266 582,-266 582,-214 478,-214"/>
</g>
<g id="clust6" class="cluster">
<title>cluster_AppModule_providers</title>
<polygon fill="none" stroke="black" points="340,-214 340,-266 470,-266 470,-214 340,-214"/>
</g>
<g id="clust7" class="cluster">
<title>cluster_AuthModule</title>
<polygon fill="none" stroke="black" stroke-dasharray="1,5" points="598,-282 598,-350 862,-350 862,-282 598,-282"/>
</g>
<g id="clust10" class="cluster">
<title>cluster_AuthModule_exports</title>
<polygon fill="none" stroke="black" points="748,-290 748,-342 854,-342 854,-290 748,-290"/>
</g>
<g id="clust12" class="cluster">
<title>cluster_AuthModule_providers</title>
<polygon fill="none" stroke="black" points="606,-290 606,-342 740,-342 740,-290 606,-290"/>
</g>
<!-- AuthModule -->
<g id="node1" class="node">
<title>AuthModule</title>
<polygon fill="#8dd3c7" stroke="black" points="573.55,-258 570.55,-262 549.55,-262 546.55,-258 486.45,-258 486.45,-222 573.55,-222 573.55,-258"/>
<text text-anchor="middle" x="530" y="-235.8" font-family="Times,serif" font-size="14.00">AuthModule</text>
</g>
<!-- AppModule -->
<g id="node4" class="node">
<title>AppModule</title>
<polygon fill="#8dd3c7" stroke="black" points="434.66,-334 431.66,-338 410.66,-338 407.66,-334 351.34,-334 351.34,-298 434.66,-298 434.66,-334"/>
<text text-anchor="middle" x="393" y="-311.8" font-family="Times,serif" font-size="14.00">AppModule</text>
</g>
<!-- AuthModule&#45;&gt;AppModule -->
<g id="edge1" class="edge">
<title>AuthModule&#45;&gt;AppModule</title>
<path fill="none" stroke="black" d="M515.41,-258.2C515.41,-282.36 515.41,-322 515.41,-322 515.41,-322 444.78,-322 444.78,-322"/>
<polygon fill="black" stroke="black" points="444.78,-318.5 434.78,-322 444.78,-325.5 444.78,-318.5"/>
</g>
<!-- AuthService  -->
<g id="node6" class="node">
<title>AuthService </title>
<polygon fill="#fb8072" stroke="black" points="845.98,-334 756.02,-334 756.02,-298 845.98,-298 845.98,-334"/>
<text text-anchor="middle" x="801" y="-311.8" font-family="Times,serif" font-size="14.00">AuthService </text>
</g>
<!-- AuthModule&#45;&gt;AuthService  -->
<g id="edge5" class="edge">
<title>AuthModule&#45;&gt;AuthService </title>
<path fill="none" stroke="black" stroke-dasharray="5,2" d="M573.84,-240C650.54,-240 801,-240 801,-240 801,-240 801,-287.99 801,-287.99"/>
<polygon fill="black" stroke="black" points="797.5,-287.99 801,-297.99 804.5,-287.99 797.5,-287.99"/>
</g>
<!-- PostsModule -->
<g id="node2" class="node">
<title>PostsModule</title>
<polygon fill="#8dd3c7" stroke="black" points="151.61,-258 148.61,-262 127.61,-262 124.61,-258 62.39,-258 62.39,-222 151.61,-222 151.61,-258"/>
<text text-anchor="middle" x="107" y="-235.8" font-family="Times,serif" font-size="14.00">PostsModule</text>
</g>
<!-- PostsModule&#45;&gt;AppModule -->
<g id="edge2" class="edge">
<title>PostsModule&#45;&gt;AppModule</title>
<path fill="none" stroke="black" d="M107,-258.2C107,-282.36 107,-322 107,-322 107,-322 341.11,-322 341.11,-322"/>
<polygon fill="black" stroke="black" points="341.11,-325.5 351.11,-322 341.11,-318.5 341.11,-325.5"/>
</g>
<!-- UsersModule -->
<g id="node3" class="node">
<title>UsersModule</title>
<polygon fill="#8dd3c7" stroke="black" points="279.92,-190 276.92,-194 255.92,-194 252.92,-190 188.08,-190 188.08,-154 279.92,-154 279.92,-190"/>
<text text-anchor="middle" x="234" y="-167.8" font-family="Times,serif" font-size="14.00">UsersModule</text>
</g>
<!-- UsersModule&#45;&gt;PostsModule -->
<g id="edge7" class="edge">
<title>UsersModule&#45;&gt;PostsModule</title>
<path fill="none" stroke="black" d="M188.21,-172C167.67,-172 147.97,-172 147.97,-172 147.97,-172 147.97,-211.78 147.97,-211.78"/>
<polygon fill="black" stroke="black" points="144.47,-211.78 147.97,-221.78 151.47,-211.78 144.47,-211.78"/>
</g>
<!-- UsersModule&#45;&gt;AppModule -->
<g id="edge3" class="edge">
<title>UsersModule&#45;&gt;AppModule</title>
<path fill="none" stroke="black" d="M201.31,-190.04C201.31,-227.45 201.31,-310 201.31,-310 201.31,-310 340.93,-310 340.93,-310"/>
<polygon fill="black" stroke="black" points="340.93,-313.5 350.93,-310 340.93,-306.5 340.93,-313.5"/>
</g>
<!-- UsersService  -->
<g id="node9" class="node">
<title>UsersService </title>
<polygon fill="#fb8072" stroke="black" points="307.85,-258 214.15,-258 214.15,-222 307.85,-222 307.85,-258"/>
<text text-anchor="middle" x="261" y="-235.8" font-family="Times,serif" font-size="14.00">UsersService </text>
</g>
<!-- UsersModule&#45;&gt;UsersService  -->
<g id="edge9" class="edge">
<title>UsersModule&#45;&gt;UsersService </title>
<path fill="none" stroke="black" stroke-dasharray="5,2" d="M247.02,-190.22C247.02,-190.22 247.02,-211.73 247.02,-211.73"/>
<polygon fill="black" stroke="black" points="243.52,-211.73 247.02,-221.73 250.52,-211.73 243.52,-211.73"/>
</g>
<!-- AppService -->
<g id="node5" class="node">
<title>AppService</title>
<ellipse fill="#fdb462" stroke="black" cx="405" cy="-240" rx="56.74" ry="18"/>
<text text-anchor="middle" x="405" y="-235.8" font-family="Times,serif" font-size="14.00">AppService</text>
</g>
<!-- AppService&#45;&gt;AppModule -->
<g id="edge4" class="edge">
<title>AppService&#45;&gt;AppModule</title>
<path fill="none" stroke="black" d="M393,-257.63C393,-257.63 393,-287.94 393,-287.94"/>
<polygon fill="black" stroke="black" points="389.5,-287.94 393,-297.94 396.5,-287.94 389.5,-287.94"/>
</g>
<!-- AuthService -->
<g id="node7" class="node">
<title>AuthService</title>
<ellipse fill="#fdb462" stroke="black" cx="673" cy="-316" rx="59.11" ry="18"/>
<text text-anchor="middle" x="673" y="-311.8" font-family="Times,serif" font-size="14.00">AuthService</text>
</g>
<!-- AuthService&#45;&gt;AuthModule -->
<g id="edge6" class="edge">
<title>AuthService&#45;&gt;AuthModule</title>
<path fill="none" stroke="black" d="M617.05,-310C582.45,-310 544.59,-310 544.59,-310 544.59,-310 544.59,-268.03 544.59,-268.03"/>
<polygon fill="black" stroke="black" points="548.09,-268.03 544.59,-258.03 541.09,-268.03 548.09,-268.03"/>
</g>
<!-- PostsService -->
<g id="node8" class="node">
<title>PostsService</title>
<ellipse fill="#fdb462" stroke="black" cx="84" cy="-172" rx="60.27" ry="18"/>
<text text-anchor="middle" x="84" y="-167.8" font-family="Times,serif" font-size="14.00">PostsService</text>
</g>
<!-- PostsService&#45;&gt;PostsModule -->
<g id="edge8" class="edge">
<title>PostsService&#45;&gt;PostsModule</title>
<path fill="none" stroke="black" d="M103.41,-189.16C103.41,-189.16 103.41,-211.65 103.41,-211.65"/>
<polygon fill="black" stroke="black" points="99.91,-211.65 103.41,-221.65 106.91,-211.65 99.91,-211.65"/>
</g>
<!-- UsersService -->
<g id="node10" class="node">
<title>UsersService</title>
<ellipse fill="#fdb462" stroke="black" cx="246" cy="-104" rx="61.95" ry="18"/>
<text text-anchor="middle" x="246" y="-99.8" font-family="Times,serif" font-size="14.00">UsersService</text>
</g>
<!-- UsersService&#45;&gt;UsersModule -->
<g id="edge10" class="edge">
<title>UsersService&#45;&gt;UsersModule</title>
<path fill="none" stroke="black" d="M234,-121.87C234,-121.87 234,-143.54 234,-143.54"/>
<polygon fill="black" stroke="black" points="230.5,-143.54 234,-153.54 237.5,-143.54 230.5,-143.54"/>
</g>
</g>
</svg>
