<?xml version="1.0" encoding="UTF-8" standalone="no"?>
<!DOCTYPE svg PUBLIC "-//W3C//DTD SVG 1.1//EN"
 "http://www.w3.org/Graphics/SVG/1.1/DTD/svg11.dtd">
<!-- Generated by graphviz version 2.47.0 (20210316.0004)
 -->
<!-- Title: dependencies Pages: 1 -->
<svg width="652pt" height="358pt"
 viewBox="0.00 0.00 652.00 358.00" xmlns="http://www.w3.org/2000/svg" xmlns:xlink="http://www.w3.org/1999/xlink">
<g id="graph0" class="graph" transform="scale(1 1) rotate(0) translate(4 354)">
<title>dependencies</title>
<polygon fill="white" stroke="transparent" points="-4,4 -4,-354 648,-354 648,4 -4,4"/>
<text text-anchor="start" x="301.01" y="-42.4" font-family="Times-12" font-weight="bold" font-size="14.00">Legend</text>
<polygon fill="#ffffb3" stroke="transparent" points="88,-10 88,-30 108,-30 108,-10 88,-10"/>
<text text-anchor="start" x="111.63" y="-15.4" font-family="Times-12" font-size="14.00"> &#160;Declarations</text>
<polygon fill="#8dd3c7" stroke="transparent" points="201,-10 201,-30 221,-30 221,-10 201,-10"/>
<text text-anchor="start" x="224.73" y="-15.4" font-family="Times-12" font-size="14.00"> &#160;Module</text>
<polygon fill="#80b1d3" stroke="transparent" points="287,-10 287,-30 307,-30 307,-10 287,-10"/>
<text text-anchor="start" x="310.78" y="-15.4" font-family="Times-12" font-size="14.00"> &#160;Bootstrap</text>
<polygon fill="#fdb462" stroke="transparent" points="384,-10 384,-30 404,-30 404,-10 384,-10"/>
<text text-anchor="start" x="407.67" y="-15.4" font-family="Times-12" font-size="14.00"> &#160;Providers</text>
<polygon fill="#fb8072" stroke="transparent" points="480,-10 480,-30 500,-30 500,-10 480,-10"/>
<text text-anchor="start" x="503.73" y="-15.4" font-family="Times-12" font-size="14.00"> &#160;Exports</text>
<g id="clust7" class="cluster">
<title>cluster_AuthModule</title>
<polygon fill="none" stroke="black" stroke-dasharray="1,5" points="486,-138 486,-342 636,-342 636,-138 486,-138"/>
</g>
<g id="clust12" class="cluster">
<title>cluster_AuthModule_providers</title>
<polygon fill="none" stroke="black" points="494,-146 494,-198 628,-198 628,-146 494,-146"/>
</g>
<g id="clust10" class="cluster">
<title>cluster_AuthModule_exports</title>
<polygon fill="none" stroke="black" points="494,-282 494,-334 600,-334 600,-282 494,-282"/>
</g>
<g id="clust19" class="cluster">
<title>cluster_UsersModule</title>
<polygon fill="none" stroke="black" stroke-dasharray="1,5" points="322,-70 322,-274 478,-274 478,-70 322,-70"/>
</g>
<g id="clust24" class="cluster">
<title>cluster_UsersModule_providers</title>
<polygon fill="none" stroke="black" points="330,-78 330,-130 470,-130 470,-78 330,-78"/>
</g>
<g id="clust22" class="cluster">
<title>cluster_UsersModule_exports</title>
<polygon fill="none" stroke="black" points="330,-214 330,-266 440,-266 440,-214 330,-214"/>
</g>
<g id="clust13" class="cluster">
<title>cluster_PostsModule</title>
<polygon fill="none" stroke="black" stroke-dasharray="1,5" points="162,-138 162,-266 314,-266 314,-138 162,-138"/>
</g>
<g id="clust18" class="cluster">
<title>cluster_PostsModule_providers</title>
<polygon fill="none" stroke="black" points="170,-146 170,-198 306,-198 306,-146 170,-146"/>
</g>
<g id="clust1" class="cluster">
<title>cluster_AppModule</title>
<polygon fill="none" stroke="black" stroke-dasharray="1,5" points="8,-206 8,-334 154,-334 154,-206 8,-206"/>
</g>
<g id="clust6" class="cluster">
<title>cluster_AppModule_providers</title>
<polygon fill="none" stroke="black" points="16,-214 16,-266 146,-266 146,-214 16,-214"/>
</g>
<!-- AuthModule -->
<g id="node1" class="node">
<title>AuthModule</title>
<polygon fill="#8dd3c7" stroke="black" points="585.55,-258 582.55,-262 561.55,-262 558.55,-258 498.45,-258 498.45,-222 585.55,-222 585.55,-258"/>
<text text-anchor="middle" x="542" y="-235.8" font-family="Times,serif" font-size="14.00">AuthModule</text>
</g>
<!-- AppModule -->
<g id="node4" class="node">
<title>AppModule</title>
<polygon fill="#8dd3c7" stroke="black" points="145.66,-326 142.66,-330 121.66,-330 118.66,-326 62.34,-326 62.34,-290 145.66,-290 145.66,-326"/>
<text text-anchor="middle" x="104" y="-303.8" font-family="Times,serif" font-size="14.00">AppModule</text>
</g>
<!-- AuthModule&#45;&gt;AppModule -->
<g id="edge1" class="edge">
<title>AuthModule&#45;&gt;AppModule</title>
<path fill="none" stroke="black" d="M498.26,-246C491.2,-246 486.14,-246 486.14,-246 486.14,-246 486.14,-317 486.14,-317 486.14,-317 155.99,-317 155.99,-317"/>
<polygon fill="black" stroke="black" points="155.99,-313.5 145.99,-317 155.99,-320.5 155.99,-313.5"/>
</g>
<!-- AuthModule&#45;&gt;AppModule -->
<g id="edge2" class="edge">
<title>AuthModule&#45;&gt;AppModule</title>
<path fill="none" stroke="black" d="M498.2,-234C485.06,-234 474.06,-234 474.06,-234 474.06,-234 474.06,-308 474.06,-308 474.06,-308 155.73,-308 155.73,-308"/>
<polygon fill="black" stroke="black" points="155.73,-304.5 145.73,-308 155.73,-311.5 155.73,-304.5"/>
</g>
<!-- AuthService  -->
<g id="node6" class="node">
<title>AuthService </title>
<polygon fill="#fb8072" stroke="black" points="591.98,-326 502.02,-326 502.02,-290 591.98,-290 591.98,-326"/>
<text text-anchor="middle" x="547" y="-303.8" font-family="Times,serif" font-size="14.00">AuthService </text>
</g>
<!-- AuthModule&#45;&gt;AuthService  -->
<g id="edge6" class="edge">
<title>AuthModule&#45;&gt;AuthService </title>
<path fill="none" stroke="black" stroke-dasharray="5,2" d="M544.02,-258.22C544.02,-258.22 544.02,-279.73 544.02,-279.73"/>
<polygon fill="black" stroke="black" points="540.52,-279.73 544.02,-289.73 547.52,-279.73 540.52,-279.73"/>
</g>
<!-- PostsModule -->
<g id="node2" class="node">
<title>PostsModule</title>
<polygon fill="#8dd3c7" stroke="black" points="282.61,-258 279.61,-262 258.61,-262 255.61,-258 193.39,-258 193.39,-222 282.61,-222 282.61,-258"/>
<text text-anchor="middle" x="238" y="-235.8" font-family="Times,serif" font-size="14.00">PostsModule</text>
</g>
<!-- PostsModule&#45;&gt;AppModule -->
<g id="edge3" class="edge">
<title>PostsModule&#45;&gt;AppModule</title>
<path fill="none" stroke="black" d="M193.24,-240C168.1,-240 141.72,-240 141.72,-240 141.72,-240 141.72,-279.78 141.72,-279.78"/>
<polygon fill="black" stroke="black" points="138.22,-279.78 141.72,-289.78 145.22,-279.78 138.22,-279.78"/>
</g>
<!-- UsersModule -->
<g id="node3" class="node">
<title>UsersModule</title>
<polygon fill="#8dd3c7" stroke="black" points="437.92,-190 434.92,-194 413.92,-194 410.92,-190 346.08,-190 346.08,-154 437.92,-154 437.92,-190"/>
<text text-anchor="middle" x="392" y="-167.8" font-family="Times,serif" font-size="14.00">UsersModule</text>
</g>
<!-- UsersModule&#45;&gt;PostsModule -->
<g id="edge8" class="edge">
<title>UsersModule&#45;&gt;PostsModule</title>
<path fill="none" stroke="black" d="M346.16,-166C328.11,-166 311.6,-166 311.6,-166 311.6,-166 311.6,-240 311.6,-240 311.6,-240 292.93,-240 292.93,-240"/>
<polygon fill="black" stroke="black" points="292.93,-236.5 282.93,-240 292.93,-243.5 292.93,-236.5"/>
</g>
<!-- UsersModule&#45;&gt;AppModule -->
<g id="edge4" class="edge">
<title>UsersModule&#45;&gt;AppModule</title>
<path fill="none" stroke="black" d="M346.07,-178C334.26,-178 324.81,-178 324.81,-178 324.81,-178 324.81,-299 324.81,-299 324.81,-299 155.79,-299 155.79,-299"/>
<polygon fill="black" stroke="black" points="155.79,-295.5 145.79,-299 155.79,-302.5 155.79,-295.5"/>
</g>
<!-- UsersService  -->
<g id="node9" class="node">
<title>UsersService </title>
<polygon fill="#fb8072" stroke="black" points="431.85,-258 338.15,-258 338.15,-222 431.85,-222 431.85,-258"/>
<text text-anchor="middle" x="385" y="-235.8" font-family="Times,serif" font-size="14.00">UsersService </text>
</g>
<!-- UsersModule&#45;&gt;UsersService  -->
<g id="edge10" class="edge">
<title>UsersModule&#45;&gt;UsersService </title>
<path fill="none" stroke="black" stroke-dasharray="5,2" d="M388.98,-190.22C388.98,-190.22 388.98,-211.73 388.98,-211.73"/>
<polygon fill="black" stroke="black" points="385.48,-211.73 388.98,-221.73 392.48,-211.73 385.48,-211.73"/>
</g>
<!-- AppService -->
<g id="node5" class="node">
<title>AppService</title>
<ellipse fill="#fdb462" stroke="black" cx="81" cy="-240" rx="56.74" ry="18"/>
<text text-anchor="middle" x="81" y="-235.8" font-family="Times,serif" font-size="14.00">AppService</text>
</g>
<!-- AppService&#45;&gt;AppModule -->
<g id="edge5" class="edge">
<title>AppService&#45;&gt;AppModule</title>
<path fill="none" stroke="black" d="M99.9,-257.16C99.9,-257.16 99.9,-279.65 99.9,-279.65"/>
<polygon fill="black" stroke="black" points="96.4,-279.65 99.9,-289.65 103.4,-279.65 96.4,-279.65"/>
</g>
<!-- AuthService -->
<g id="node7" class="node">
<title>AuthService</title>
<ellipse fill="#fdb462" stroke="black" cx="561" cy="-172" rx="59.11" ry="18"/>
<text text-anchor="middle" x="561" y="-167.8" font-family="Times,serif" font-size="14.00">AuthService</text>
</g>
<!-- AuthService&#45;&gt;AuthModule -->
<g id="edge7" class="edge">
<title>AuthService&#45;&gt;AuthModule</title>
<path fill="none" stroke="black" d="M543.73,-189.51C543.73,-189.51 543.73,-211.84 543.73,-211.84"/>
<polygon fill="black" stroke="black" points="540.23,-211.84 543.73,-221.84 547.23,-211.84 540.23,-211.84"/>
</g>
<!-- PostsService -->
<g id="node8" class="node">
<title>PostsService</title>
<ellipse fill="#fdb462" stroke="black" cx="238" cy="-172" rx="60.27" ry="18"/>
<text text-anchor="middle" x="238" y="-167.8" font-family="Times,serif" font-size="14.00">PostsService</text>
</g>
<!-- PostsService&#45;&gt;PostsModule -->
<g id="edge9" class="edge">
<title>PostsService&#45;&gt;PostsModule</title>
<path fill="none" stroke="black" d="M238,-190.22C238,-190.22 238,-211.73 238,-211.73"/>
<polygon fill="black" stroke="black" points="234.5,-211.73 238,-221.73 241.5,-211.73 234.5,-211.73"/>
</g>
<!-- UsersService -->
<g id="node10" class="node">
<title>UsersService</title>
<ellipse fill="#fdb462" stroke="black" cx="400" cy="-104" rx="61.95" ry="18"/>
<text text-anchor="middle" x="400" y="-99.8" font-family="Times,serif" font-size="14.00">UsersService</text>
</g>
<!-- UsersService&#45;&gt;UsersModule -->
<g id="edge11" class="edge">
<title>UsersService&#45;&gt;UsersModule</title>
<path fill="none" stroke="black" d="M392,-121.87C392,-121.87 392,-143.54 392,-143.54"/>
<polygon fill="black" stroke="black" points="388.5,-143.54 392,-153.54 395.5,-143.54 388.5,-143.54"/>
</g>
</g>
</svg>
